<svg width="26" height="26" viewBox="0 0 26 26" fill="none" xmlns="http://www.w3.org/2000/svg">
<path d="M24.375 11.375H14.625V1.625C14.625 1.19402 14.4538 0.780698 14.149 0.475952C13.8443 0.171205 13.431 0 13 0C12.569 0 12.1557 0.171205 11.851 0.475952C11.5462 0.780698 11.375 1.19402 11.375 1.625V11.375H1.625C1.19402 11.375 0.780698 11.5462 0.475952 11.851C0.171205 12.1557 0 12.569 0 13C0 13.431 0.171205 13.8443 0.475952 14.149C0.780698 14.4538 1.19402 14.625 1.625 14.625H11.375V24.375C11.375 24.806 11.5462 25.2193 11.851 25.524C12.1557 25.8288 12.569 26 13 26C13.431 26 13.8443 25.8288 14.149 25.524C14.4538 25.2193 14.625 24.806 14.625 24.375V14.625H24.375C24.806 14.625 25.2193 14.4538 25.524 14.149C25.8288 13.8443 26 13.431 26 13C26 12.569 25.8288 12.1557 25.524 11.851C25.2193 11.5462 24.806 11.375 24.375 11.375Z" fill="#E4A30B"/>
</svg>
