<svg width="67" height="80" viewBox="0 0 67 80" fill="none" xmlns="http://www.w3.org/2000/svg">
<path d="M63.4921 34.298H62.8571C61.3333 27.5241 57.1111 21.6363 51.2698 17.5205C51.3016 17.2061 51.3333 16.8917 51.2698 16.5773L48.0952 2.28653C47.8095 0.971775 46.5079 0 44.9841 0H19.5873C18.0635 0 16.7619 0.971775 16.4762 2.28653L13.3016 16.5773C13.2698 16.6631 13.3016 16.7203 13.3016 16.7774C5.26984 21.9793 0 30.4394 0 40.0143C0 49.5891 5.26984 58.0493 13.3016 63.2226C13.3016 63.2797 13.2698 63.3655 13.3016 63.4227L16.4762 77.7135C16.7619 79.0568 18.0635 80 19.5873 80H44.9841C46.5079 80 47.8095 79.0282 48.0952 77.7135L51.2698 63.4227C51.3333 63.1083 51.3016 62.7939 51.2698 62.4795C57.1111 58.3637 61.3333 52.4759 62.8571 45.702H63.4921C65.2381 45.702 66.6667 44.4159 66.6667 42.8439V37.1275C66.6667 35.5841 65.2381 34.298 63.4921 34.298ZM22.1905 5.71633H42.381L44.1587 13.7192C40.3492 12.2329 36.1587 11.4327 31.746 11.4327C27.7778 11.4327 24 12.1186 20.5079 13.319L22.1905 5.71633ZM42.381 74.3123H22.1905L20.5079 66.7095C24 67.91 27.7778 68.5959 31.746 68.5959C36.1587 68.5959 40.3492 67.7956 44.1587 66.3094L42.381 74.3123ZM31.746 62.8796C17.746 62.8796 6.34921 52.6188 6.34921 40.0143C6.34921 27.4098 17.746 17.149 31.746 17.149C45.746 17.149 57.1429 27.4098 57.1429 40.0143C57.1429 52.6188 45.746 62.8796 31.746 62.8796Z" fill="#FFBB00"/>
<path fill-rule="evenodd" clip-rule="evenodd" d="M30.6665 30.667V43.167L36.9165 49.417" fill="#FFBB00"/>
<path d="M30.6665 30.667V43.167L36.9165 49.417" stroke="#FFBB00" stroke-width="2" stroke-linecap="round" stroke-linejoin="round"/>
</svg>
