<svg width="25" height="24" viewBox="0 0 25 24" fill="none" xmlns="http://www.w3.org/2000/svg">
<path d="M4.73593 21.4992C4.73593 21.7071 4.77637 21.913 4.85495 22.105C4.93352 22.2971 5.04869 22.4717 5.19388 22.6187C5.33906 22.7657 5.51143 22.8823 5.70112 22.9619C5.89082 23.0414 6.09413 23.0824 6.29946 23.0824C6.71413 23.0824 7.11182 22.9156 7.40504 22.6187C7.55023 22.4717 7.6654 22.2971 7.74397 22.105C7.82255 21.913 7.86299 21.7071 7.86299 21.4992C7.86299 21.0793 7.69826 20.6766 7.40504 20.3797C7.11182 20.0828 6.71413 19.916 6.29946 19.916C5.88479 19.916 5.4871 20.0828 5.19388 20.3797C4.90066 20.6766 4.73593 21.0793 4.73593 21.4992ZM18.8077 21.4992C18.8077 21.7071 18.8481 21.913 18.9267 22.105C19.0053 22.2971 19.1205 22.4717 19.2656 22.6187C19.4108 22.7657 19.5832 22.8823 19.7729 22.9619C19.9626 23.0414 20.1659 23.0824 20.3712 23.0824C20.7859 23.0824 21.1836 22.9156 21.4768 22.6187C21.622 22.4717 21.7372 22.2971 21.8157 22.105C21.8943 21.913 21.9348 21.7071 21.9348 21.4992C21.9348 21.0793 21.77 20.6766 21.4768 20.3797C21.1836 20.0828 20.7859 19.916 20.3712 19.916C19.9565 19.916 19.5589 20.0828 19.2656 20.3797C18.9724 20.6766 18.8077 21.0793 18.8077 21.4992ZM0 1.70955C0 1.9195 0.0823643 2.12084 0.228974 2.26929C0.375583 2.41774 0.574428 2.50114 0.781765 2.50114H2.40627L3.37722 6.70604L4.73593 13.5833C4.73593 13.6403 4.76251 13.6894 4.76876 13.7448L3.97293 17.3703C3.9472 17.486 3.94755 17.6061 3.97396 17.7216C4.00037 17.8371 4.05216 17.9452 4.12547 18.0376C4.19878 18.1301 4.29173 18.2047 4.39742 18.2558C4.50311 18.3069 4.61881 18.3332 4.73593 18.3328H22.4726C22.6799 18.3328 22.8788 18.2495 23.0254 18.101C23.172 17.9525 23.2544 17.7512 23.2544 17.5413C23.2544 17.3313 23.172 17.13 23.0254 16.9815C22.8788 16.8331 22.6799 16.7497 22.4726 16.7497H5.71157L6.06962 15.119C6.1478 15.1317 6.21816 15.1665 6.29946 15.1665H20.551C21.4141 15.1665 21.9348 14.9939 22.3507 13.9791L24.8898 6.09177C25.3307 4.678 24.3629 4.08431 23.4983 4.08431H4.73593C4.61397 4.08431 4.50765 4.12706 4.39352 4.15397L3.78687 1.52907C3.74665 1.35517 3.64953 1.20014 3.51129 1.0892C3.37305 0.978254 3.20182 0.917908 3.02543 0.917969H0.781765C0.574428 0.917969 0.375583 1.00137 0.228974 1.14982C0.0823643 1.29827 0 1.49961 0 1.70955ZM4.7672 5.66748H23.381L20.8856 13.4234C20.8559 13.4915 20.8309 13.5406 20.8121 13.5738C20.7605 13.5786 20.6792 13.5833 20.551 13.5833H6.29946V13.4266L6.26975 13.273L4.7672 5.66748Z" fill="#FFBB00"/>
</svg>
