<svg width="50" height="43" viewBox="0 0 50 43" fill="none" xmlns="http://www.w3.org/2000/svg">
<path d="M42.4991 7.4999H39.2992L38.4992 4.99995C37.9806 3.53306 37.0186 2.26377 35.7465 1.36793C34.4744 0.472091 32.9552 -0.00594212 31.3993 5.57579e-05H18.5996C17.0285 0.00299497 15.498 0.499253 14.2241 1.41879C12.9502 2.33833 11.9973 3.6347 11.4998 5.12495L10.6998 7.6249H7.49984C5.51076 7.6249 3.60315 8.41506 2.19665 9.82155C0.79016 11.228 0 13.1357 0 15.1247V35.1243C0 37.1134 0.79016 39.021 2.19665 40.4275C3.60315 41.834 5.51076 42.6242 7.49984 42.6242H42.4991C44.4882 42.6242 46.3958 41.834 47.8023 40.4275C49.2088 39.021 49.999 37.1134 49.999 35.1243V15.1247C50.0156 14.1294 49.8338 13.1407 49.4644 12.2163C49.0949 11.2919 48.5451 10.4503 47.847 9.74056C47.1489 9.03084 46.3165 8.4672 45.3983 8.08251C44.4802 7.69781 43.4946 7.49976 42.4991 7.4999ZM44.9991 34.9993C44.9991 35.6624 44.7357 36.2982 44.2668 36.7671C43.798 37.2359 43.1621 37.4993 42.4991 37.4993H7.49984C6.83682 37.4993 6.20095 37.2359 5.73211 36.7671C5.26328 36.2982 4.9999 35.6624 4.9999 34.9993V14.9997C4.9999 14.3367 5.26328 13.7008 5.73211 13.232C6.20095 12.7632 6.83682 12.4998 7.49984 12.4998H12.4997C13.0449 12.5283 13.5844 12.3775 14.0358 12.0705C14.4872 11.7636 14.8257 11.3173 14.9997 10.7998L16.3497 6.69992C16.5174 6.20337 16.8369 5.7721 17.2631 5.46705C17.6892 5.162 18.2005 4.9986 18.7246 4.99995H31.5243C32.0484 4.9986 32.5597 5.162 32.9859 5.46705C33.4121 5.7721 33.7316 6.20337 33.8993 6.69992L35.2493 10.7998C35.4097 11.2767 35.7103 11.694 36.1117 11.9973C36.5131 12.3006 36.9967 12.4757 37.4992 12.4998H42.4991C43.1621 12.4998 43.798 12.7632 44.2668 13.232C44.7357 13.7008 44.9991 14.3367 44.9991 14.9997V34.9993ZM24.9995 12.4998C23.0217 12.4998 21.0884 13.0863 19.4439 14.1851C17.7994 15.2839 16.5177 16.8456 15.7609 18.6728C15.004 20.5001 14.806 22.5107 15.1918 24.4504C15.5777 26.3902 16.5301 28.172 17.9286 29.5705C19.3271 30.969 21.1088 31.9214 23.0486 32.3072C24.9884 32.6931 26.999 32.4951 28.8262 31.7382C30.6535 30.9813 32.2152 29.6996 33.314 28.0552C34.4128 26.4107 34.9993 24.4774 34.9993 22.4996C34.9993 19.8475 33.9457 17.304 32.0704 15.4287C30.1951 13.5533 27.6516 12.4998 24.9995 12.4998ZM24.9995 27.4995C24.0106 27.4995 23.0439 27.2062 22.2217 26.6568C21.3995 26.1075 20.7586 25.3266 20.3802 24.413C20.0017 23.4994 19.9027 22.494 20.0957 21.5242C20.2886 20.5543 20.7648 19.6634 21.464 18.9641C22.1633 18.2649 23.0542 17.7887 24.024 17.5958C24.9939 17.4028 25.9992 17.5019 26.9129 17.8803C27.8265 18.2587 28.6073 18.8996 29.1567 19.7218C29.7061 20.544 29.9994 21.5107 29.9994 22.4996C29.9994 23.8256 29.4726 25.0974 28.5349 26.035C27.5973 26.9727 26.3255 27.4995 24.9995 27.4995Z" fill="#111111"/>
</svg>
