<svg width="40" height="40" viewBox="0 0 40 40" fill="none" xmlns="http://www.w3.org/2000/svg">
<path d="M37.198 14.3933V8.59204L31.3666 5.67419L25.6965 0L20 1.42451L14.3035 0L8.63342 5.67419L2.80196 8.59204V14.3933L0 20.0013L2.80196 25.6093V31.4106L8.63342 34.3285L14.3035 40.0026L20 38.5781L25.6965 40.0026L31.3666 34.3285L37.198 31.4106V25.6093L40 20.0013L37.198 14.3933ZM34.5522 24.9844V29.7743L29.9907 32.0567L24.8869 37.0689L20 35.8456L15.1131 37.0689L10.3506 32.3029L5.44516 29.7716V24.9844L2.95806 20.0013L5.44781 15.0182V10.2284L10.0093 7.94599L15.1158 2.93109L20.0026 4.15437L24.8895 2.93109L29.6521 7.69709L34.5575 10.2284V15.0182L37.0419 20.0013L34.5522 24.9844Z" fill="#FFBB00"/>
<path d="M11.1256 27.0071L27.0007 11.1205L28.8713 12.9951L12.9962 28.8818L11.1256 27.0071ZM14.708 18.6772C16.8962 18.6772 18.6768 16.8953 18.6768 14.7056C18.6768 12.5158 16.8962 10.7339 14.708 10.7339C12.5199 10.7339 10.7393 12.5158 10.7393 14.7056C10.7393 16.8953 12.5199 18.6772 14.708 18.6772ZM14.708 13.3817C15.0589 13.3817 15.3954 13.5211 15.6435 13.7694C15.8916 14.0177 16.031 14.3544 16.031 14.7056C16.031 15.0567 15.8916 15.3934 15.6435 15.6417C15.3954 15.89 15.0589 16.0294 14.708 16.0294C14.3572 16.0294 14.0207 15.89 13.7726 15.6417C13.5245 15.3934 13.3851 15.0567 13.3851 14.7056C13.3851 14.3544 13.5245 14.0177 13.7726 13.7694C14.0207 13.5211 14.3572 13.3817 14.708 13.3817ZM25.2914 21.325C23.1033 21.325 21.3227 23.107 21.3227 25.2967C21.3227 27.4864 23.1033 29.2683 25.2914 29.2683C27.4796 29.2683 29.2602 27.4864 29.2602 25.2967C29.2602 23.107 27.4796 21.325 25.2914 21.325ZM25.2914 26.6206C24.9406 26.6206 24.6041 26.4811 24.356 26.2328C24.1079 25.9845 23.9685 25.6478 23.9685 25.2967C23.9685 24.9456 24.1079 24.6088 24.356 24.3605C24.6041 24.1123 24.9406 23.9728 25.2914 23.9728C25.6423 23.9728 25.9788 24.1123 26.2269 24.3605C26.475 24.6088 26.6144 24.9456 26.6144 25.2967C26.6144 25.6478 26.475 25.9845 26.2269 26.2328C25.9788 26.4811 25.6423 26.6206 25.2914 26.6206Z" fill="#FFBB00"/>
</svg>
