<svg width="30" height="35" viewBox="0 0 30 35" fill="none" xmlns="http://www.w3.org/2000/svg">
<path d="M23.3333 8.75V7.29167C23.3333 3.26448 19.6025 0 15 0C10.3975 0 6.66667 3.26448 6.66667 7.29167V8.75H0V30.625C0 33.0422 2.2375 35 5 35H25C27.7625 35 30 33.0422 30 30.625V8.75H23.3333ZM10 7.29167C10 4.87557 12.2387 2.91667 15 2.91667C17.7612 2.91667 20 4.87557 20 7.29167V8.75H10V7.29167ZM26.6667 30.625C26.6667 31.4307 25.9208 32.0833 25 32.0833H5C4.07917 32.0833 3.33333 31.4307 3.33333 30.625V11.6667H26.6667V30.625Z" fill="black"/>
</svg>
