<svg width="416" height="225" viewBox="0 0 416 225" fill="none" xmlns="http://www.w3.org/2000/svg">
<path d="M1.05 202.5C1.05 200.44 1.51 198.6 2.43 196.98C3.37 195.34 4.64 194.07 6.24 193.17C7.86 192.25 9.67 191.79 11.67 191.79C14.01 191.79 16.06 192.39 17.82 193.59C19.58 194.79 20.81 196.45 21.51 198.57H16.68C16.2 197.57 15.52 196.82 14.64 196.32C13.78 195.82 12.78 195.57 11.64 195.57C10.42 195.57 9.33 195.86 8.37 196.44C7.43 197 6.69 197.8 6.15 198.84C5.63 199.88 5.37 201.1 5.37 202.5C5.37 203.88 5.63 205.1 6.15 206.16C6.69 207.2 7.43 208.01 8.37 208.59C9.33 209.15 10.42 209.43 11.64 209.43C12.78 209.43 13.78 209.18 14.64 208.68C15.52 208.16 16.2 207.4 16.68 206.4H21.51C20.81 208.54 19.58 210.21 17.82 211.41C16.08 212.59 14.03 213.18 11.67 213.18C9.67 213.18 7.86 212.73 6.24 211.83C4.64 210.91 3.37 209.64 2.43 208.02C1.51 206.4 1.05 204.56 1.05 202.5ZM32.4773 213.27C30.8773 213.27 29.4373 212.92 28.1573 212.22C26.8773 211.5 25.8673 210.49 25.1273 209.19C24.4073 207.89 24.0473 206.39 24.0473 204.69C24.0473 202.99 24.4173 201.49 25.1573 200.19C25.9173 198.89 26.9473 197.89 28.2473 197.19C29.5473 196.47 30.9973 196.11 32.5973 196.11C34.1973 196.11 35.6473 196.47 36.9473 197.19C38.2473 197.89 39.2673 198.89 40.0073 200.19C40.7673 201.49 41.1473 202.99 41.1473 204.69C41.1473 206.39 40.7573 207.89 39.9773 209.19C39.2173 210.49 38.1773 211.5 36.8573 212.22C35.5573 212.92 34.0973 213.27 32.4773 213.27ZM32.4773 209.61C33.2373 209.61 33.9473 209.43 34.6073 209.07C35.2873 208.69 35.8273 208.13 36.2273 207.39C36.6273 206.65 36.8273 205.75 36.8273 204.69C36.8273 203.11 36.4073 201.9 35.5673 201.06C34.7473 200.2 33.7373 199.77 32.5373 199.77C31.3373 199.77 30.3273 200.2 29.5073 201.06C28.7073 201.9 28.3073 203.11 28.3073 204.69C28.3073 206.27 28.6973 207.49 29.4773 208.35C30.2773 209.19 31.2773 209.61 32.4773 209.61ZM53.4382 196.14C55.4182 196.14 57.0182 196.77 58.2382 198.03C59.4582 199.27 60.0682 201.01 60.0682 203.25V213H55.8682V203.82C55.8682 202.5 55.5382 201.49 54.8782 200.79C54.2182 200.07 53.3182 199.71 52.1782 199.71C51.0182 199.71 50.0982 200.07 49.4182 200.79C48.7582 201.49 48.4282 202.5 48.4282 203.82V213H44.2282V196.38H48.4282V198.45C48.9882 197.73 49.6982 197.17 50.5582 196.77C51.4382 196.35 52.3982 196.14 53.4382 196.14ZM68.9522 199.83V207.87C68.9522 208.43 69.0822 208.84 69.3422 209.1C69.6222 209.34 70.0822 209.46 70.7222 209.46H72.6722V213H70.0322C66.4922 213 64.7222 211.28 64.7222 207.84V199.83H62.7422V196.38H64.7222V192.27H68.9522V196.38H72.6722V199.83H68.9522ZM74.613 204.63C74.613 202.95 74.943 201.46 75.603 200.16C76.283 198.86 77.193 197.86 78.333 197.16C79.493 196.46 80.783 196.11 82.203 196.11C83.443 196.11 84.523 196.36 85.443 196.86C86.383 197.36 87.133 197.99 87.693 198.75V196.38H91.923V213H87.693V210.57C87.153 211.35 86.403 212 85.443 212.52C84.503 213.02 83.413 213.27 82.173 213.27C80.773 213.27 79.493 212.91 78.333 212.19C77.193 211.47 76.283 210.46 75.603 209.16C74.943 207.84 74.613 206.33 74.613 204.63ZM87.693 204.69C87.693 203.67 87.493 202.8 87.093 202.08C86.693 201.34 86.153 200.78 85.473 200.4C84.793 200 84.063 199.8 83.283 199.8C82.503 199.8 81.783 199.99 81.123 200.37C80.463 200.75 79.923 201.31 79.503 202.05C79.103 202.77 78.903 203.63 78.903 204.63C78.903 205.63 79.103 206.51 79.503 207.27C79.923 208.01 80.463 208.58 81.123 208.98C81.803 209.38 82.523 209.58 83.283 209.58C84.063 209.58 84.793 209.39 85.473 209.01C86.153 208.61 86.693 208.05 87.093 207.33C87.493 206.59 87.693 205.71 87.693 204.69ZM102.154 202.5C102.154 200.44 102.614 198.6 103.534 196.98C104.474 195.34 105.744 194.07 107.344 193.17C108.964 192.25 110.774 191.79 112.774 191.79C115.114 191.79 117.164 192.39 118.924 193.59C120.684 194.79 121.914 196.45 122.614 198.57H117.784C117.304 197.57 116.624 196.82 115.744 196.32C114.884 195.82 113.884 195.57 112.744 195.57C111.524 195.57 110.434 195.86 109.474 196.44C108.534 197 107.794 197.8 107.254 198.84C106.734 199.88 106.474 201.1 106.474 202.5C106.474 203.88 106.734 205.1 107.254 206.16C107.794 207.2 108.534 208.01 109.474 208.59C110.434 209.15 111.524 209.43 112.744 209.43C113.884 209.43 114.884 209.18 115.744 208.68C116.624 208.16 117.304 207.4 117.784 206.4H122.614C121.914 208.54 120.684 210.21 118.924 211.41C117.184 212.59 115.134 213.18 112.774 213.18C110.774 213.18 108.964 212.73 107.344 211.83C105.744 210.91 104.474 209.64 103.534 208.02C102.614 206.4 102.154 204.56 102.154 202.5ZM130.401 198.96C130.941 198.08 131.641 197.39 132.501 196.89C133.381 196.39 134.381 196.14 135.501 196.14V200.55H134.391C133.071 200.55 132.071 200.86 131.391 201.48C130.731 202.1 130.401 203.18 130.401 204.72V213H126.201V196.38H130.401V198.96ZM140.46 194.4C139.72 194.4 139.1 194.17 138.6 193.71C138.12 193.23 137.88 192.64 137.88 191.94C137.88 191.24 138.12 190.66 138.6 190.2C139.1 189.72 139.72 189.48 140.46 189.48C141.2 189.48 141.81 189.72 142.29 190.2C142.79 190.66 143.04 191.24 143.04 191.94C143.04 192.64 142.79 193.23 142.29 193.71C141.81 194.17 141.2 194.4 140.46 194.4ZM142.53 196.38V213H138.33V196.38H142.53ZM145.599 204.63C145.599 202.95 145.929 201.46 146.589 200.16C147.269 198.86 148.179 197.86 149.319 197.16C150.479 196.46 151.769 196.11 153.189 196.11C154.429 196.11 155.509 196.36 156.429 196.86C157.369 197.36 158.119 197.99 158.679 198.75V196.38H162.909V213H158.679V210.57C158.139 211.35 157.389 212 156.429 212.52C155.489 213.02 154.399 213.27 153.159 213.27C151.759 213.27 150.479 212.91 149.319 212.19C148.179 211.47 147.269 210.46 146.589 209.16C145.929 207.84 145.599 206.33 145.599 204.63ZM158.679 204.69C158.679 203.67 158.479 202.8 158.079 202.08C157.679 201.34 157.139 200.78 156.459 200.4C155.779 200 155.049 199.8 154.269 199.8C153.489 199.8 152.769 199.99 152.109 200.37C151.449 200.75 150.909 201.31 150.489 202.05C150.089 202.77 149.889 203.63 149.889 204.63C149.889 205.63 150.089 206.51 150.489 207.27C150.909 208.01 151.449 208.58 152.109 208.98C152.789 209.38 153.509 209.58 154.269 209.58C155.049 209.58 155.779 209.39 156.459 209.01C157.139 208.61 157.679 208.05 158.079 207.33C158.479 206.59 158.679 205.71 158.679 204.69ZM165.931 204.63C165.931 202.95 166.261 201.46 166.921 200.16C167.601 198.86 168.521 197.86 169.681 197.16C170.841 196.46 172.131 196.11 173.551 196.11C174.631 196.11 175.661 196.35 176.641 196.83C177.621 197.29 178.401 197.91 178.981 198.69V190.8H183.241V213H178.981V210.54C178.461 211.36 177.731 212.02 176.791 212.52C175.851 213.02 174.761 213.27 173.521 213.27C172.121 213.27 170.841 212.91 169.681 212.19C168.521 211.47 167.601 210.46 166.921 209.16C166.261 207.84 165.931 206.33 165.931 204.63ZM179.011 204.69C179.011 203.67 178.811 202.8 178.411 202.08C178.011 201.34 177.471 200.78 176.791 200.4C176.111 200 175.381 199.8 174.601 199.8C173.821 199.8 173.101 199.99 172.441 200.37C171.781 200.75 171.241 201.31 170.821 202.05C170.421 202.77 170.221 203.63 170.221 204.63C170.221 205.63 170.421 206.51 170.821 207.27C171.241 208.01 171.781 208.58 172.441 208.98C173.121 209.38 173.841 209.58 174.601 209.58C175.381 209.58 176.111 209.39 176.791 209.01C177.471 208.61 178.011 208.05 178.411 207.33C178.811 206.59 179.011 205.71 179.011 204.69ZM186.263 204.63C186.263 202.95 186.593 201.46 187.253 200.16C187.933 198.86 188.843 197.86 189.983 197.16C191.143 196.46 192.433 196.11 193.853 196.11C195.093 196.11 196.173 196.36 197.093 196.86C198.033 197.36 198.783 197.99 199.343 198.75V196.38H203.573V213H199.343V210.57C198.803 211.35 198.053 212 197.093 212.52C196.153 213.02 195.063 213.27 193.823 213.27C192.423 213.27 191.143 212.91 189.983 212.19C188.843 211.47 187.933 210.46 187.253 209.16C186.593 207.84 186.263 206.33 186.263 204.63ZM199.343 204.69C199.343 203.67 199.143 202.8 198.743 202.08C198.343 201.34 197.803 200.78 197.123 200.4C196.443 200 195.713 199.8 194.933 199.8C194.153 199.8 193.433 199.99 192.773 200.37C192.113 200.75 191.573 201.31 191.153 202.05C190.753 202.77 190.553 203.63 190.553 204.63C190.553 205.63 190.753 206.51 191.153 207.27C191.573 208.01 192.113 208.58 192.773 208.98C193.453 209.38 194.173 209.58 194.933 209.58C195.713 209.58 196.443 209.39 197.123 209.01C197.803 208.61 198.343 208.05 198.743 207.33C199.143 206.59 199.343 205.71 199.343 204.69ZM213.744 204.69C213.744 202.97 214.094 201.47 214.794 200.19C215.494 198.89 216.464 197.89 217.704 197.19C218.944 196.47 220.364 196.11 221.964 196.11C224.024 196.11 225.724 196.63 227.064 197.67C228.424 198.69 229.334 200.13 229.794 201.99H225.264C225.024 201.27 224.614 200.71 224.034 200.31C223.474 199.89 222.774 199.68 221.934 199.68C220.734 199.68 219.784 200.12 219.084 201C218.384 201.86 218.034 203.09 218.034 204.69C218.034 206.27 218.384 207.5 219.084 208.38C219.784 209.24 220.734 209.67 221.934 209.67C223.634 209.67 224.744 208.91 225.264 207.39H229.794C229.334 209.19 228.424 210.62 227.064 211.68C225.704 212.74 224.004 213.27 221.964 213.27C220.364 213.27 218.944 212.92 217.704 212.22C216.464 211.5 215.494 210.5 214.794 209.22C214.094 207.92 213.744 206.41 213.744 204.69ZM240.251 213.27C238.651 213.27 237.211 212.92 235.931 212.22C234.651 211.5 233.641 210.49 232.901 209.19C232.181 207.89 231.821 206.39 231.821 204.69C231.821 202.99 232.191 201.49 232.931 200.19C233.691 198.89 234.721 197.89 236.021 197.19C237.321 196.47 238.771 196.11 240.371 196.11C241.971 196.11 243.421 196.47 244.721 197.19C246.021 197.89 247.041 198.89 247.781 200.19C248.541 201.49 248.921 202.99 248.921 204.69C248.921 206.39 248.531 207.89 247.751 209.19C246.991 210.49 245.951 211.5 244.631 212.22C243.331 212.92 241.871 213.27 240.251 213.27ZM240.251 209.61C241.011 209.61 241.721 209.43 242.381 209.07C243.061 208.69 243.601 208.13 244.001 207.39C244.401 206.65 244.601 205.75 244.601 204.69C244.601 203.11 244.181 201.9 243.341 201.06C242.521 200.2 241.511 199.77 240.311 199.77C239.111 199.77 238.101 200.2 237.281 201.06C236.481 201.9 236.081 203.11 236.081 204.69C236.081 206.27 236.471 207.49 237.251 208.35C238.051 209.19 239.051 209.61 240.251 209.61ZM272.642 196.14C274.682 196.14 276.322 196.77 277.562 198.03C278.822 199.27 279.452 201.01 279.452 203.25V213H275.252V203.82C275.252 202.52 274.922 201.53 274.262 200.85C273.602 200.15 272.702 199.8 271.562 199.8C270.422 199.8 269.512 200.15 268.832 200.85C268.172 201.53 267.842 202.52 267.842 203.82V213H263.642V203.82C263.642 202.52 263.312 201.53 262.652 200.85C261.992 200.15 261.092 199.8 259.952 199.8C258.792 199.8 257.872 200.15 257.192 200.85C256.532 201.53 256.202 202.52 256.202 203.82V213H252.002V196.38H256.202V198.39C256.742 197.69 257.432 197.14 258.272 196.74C259.132 196.34 260.072 196.14 261.092 196.14C262.392 196.14 263.552 196.42 264.572 196.98C265.592 197.52 266.382 198.3 266.942 199.32C267.482 198.36 268.262 197.59 269.282 197.01C270.322 196.43 271.442 196.14 272.642 196.14ZM297.816 213.21C296.356 213.21 295.036 212.96 293.856 212.46C292.696 211.96 291.776 211.24 291.096 210.3C290.416 209.36 290.066 208.25 290.046 206.97H294.546C294.606 207.83 294.906 208.51 295.446 209.01C296.006 209.51 296.766 209.76 297.726 209.76C298.706 209.76 299.476 209.53 300.036 209.07C300.596 208.59 300.876 207.97 300.876 207.21C300.876 206.59 300.686 206.08 300.306 205.68C299.926 205.28 299.446 204.97 298.866 204.75C298.306 204.51 297.526 204.25 296.526 203.97C295.166 203.57 294.056 203.18 293.196 202.8C292.356 202.4 291.626 201.81 291.006 201.03C290.406 200.23 290.106 199.17 290.106 197.85C290.106 196.61 290.416 195.53 291.036 194.61C291.656 193.69 292.526 192.99 293.646 192.51C294.766 192.01 296.046 191.76 297.486 191.76C299.646 191.76 301.396 192.29 302.736 193.35C304.096 194.39 304.846 195.85 304.986 197.73H300.366C300.326 197.01 300.016 196.42 299.436 195.96C298.876 195.48 298.126 195.24 297.186 195.24C296.366 195.24 295.706 195.45 295.206 195.87C294.726 196.29 294.486 196.9 294.486 197.7C294.486 198.26 294.666 198.73 295.026 199.11C295.406 199.47 295.866 199.77 296.406 200.01C296.966 200.23 297.746 200.49 298.746 200.79C300.106 201.19 301.216 201.59 302.076 201.99C302.936 202.39 303.676 202.99 304.296 203.79C304.916 204.59 305.226 205.64 305.226 206.94C305.226 208.06 304.936 209.1 304.356 210.06C303.776 211.02 302.926 211.79 301.806 212.37C300.686 212.93 299.356 213.21 297.816 213.21ZM324.557 196.38V213H320.327V210.9C319.787 211.62 319.077 212.19 318.197 212.61C317.337 213.01 316.397 213.21 315.377 213.21C314.077 213.21 312.927 212.94 311.927 212.4C310.927 211.84 310.137 211.03 309.557 209.97C308.997 208.89 308.717 207.61 308.717 206.13V196.38H312.917V205.53C312.917 206.85 313.247 207.87 313.907 208.59C314.567 209.29 315.467 209.64 316.607 209.64C317.767 209.64 318.677 209.29 319.337 208.59C319.997 207.87 320.327 206.85 320.327 205.53V196.38H324.557ZM327.621 204.69C327.621 202.97 327.971 201.47 328.671 200.19C329.371 198.89 330.341 197.89 331.581 197.19C332.821 196.47 334.241 196.11 335.841 196.11C337.901 196.11 339.601 196.63 340.941 197.67C342.301 198.69 343.211 200.13 343.671 201.99H339.141C338.901 201.27 338.491 200.71 337.911 200.31C337.351 199.89 336.651 199.68 335.811 199.68C334.611 199.68 333.661 200.12 332.961 201C332.261 201.86 331.911 203.09 331.911 204.69C331.911 206.27 332.261 207.5 332.961 208.38C333.661 209.24 334.611 209.67 335.811 209.67C337.511 209.67 338.621 208.91 339.141 207.39H343.671C343.211 209.19 342.301 210.62 340.941 211.68C339.581 212.74 337.881 213.27 335.841 213.27C334.241 213.27 332.821 212.92 331.581 212.22C330.341 211.5 329.371 210.5 328.671 209.22C327.971 207.92 327.621 206.41 327.621 204.69ZM362.198 204.33C362.198 204.93 362.158 205.47 362.078 205.95H349.928C350.028 207.15 350.448 208.09 351.188 208.77C351.928 209.45 352.838 209.79 353.918 209.79C355.478 209.79 356.588 209.12 357.248 207.78H361.778C361.298 209.38 360.378 210.7 359.018 211.74C357.658 212.76 355.988 213.27 354.008 213.27C352.408 213.27 350.968 212.92 349.688 212.22C348.428 211.5 347.438 210.49 346.718 209.19C346.018 207.89 345.668 206.39 345.668 204.69C345.668 202.97 346.018 201.46 346.718 200.16C347.418 198.86 348.398 197.86 349.658 197.16C350.918 196.46 352.368 196.11 354.008 196.11C355.588 196.11 356.998 196.45 358.238 197.13C359.498 197.81 360.468 198.78 361.148 200.04C361.848 201.28 362.198 202.71 362.198 204.33ZM357.848 203.13C357.828 202.05 357.438 201.19 356.678 200.55C355.918 199.89 354.988 199.56 353.888 199.56C352.848 199.56 351.968 199.88 351.248 200.52C350.548 201.14 350.118 202.01 349.958 203.13H357.848ZM371.623 213.27C370.263 213.27 369.043 213.03 367.963 212.55C366.883 212.05 366.023 211.38 365.383 210.54C364.763 209.7 364.423 208.77 364.363 207.75H368.593C368.673 208.39 368.983 208.92 369.523 209.34C370.083 209.76 370.773 209.97 371.593 209.97C372.393 209.97 373.013 209.81 373.453 209.49C373.913 209.17 374.143 208.76 374.143 208.26C374.143 207.72 373.863 207.32 373.303 207.06C372.763 206.78 371.893 206.48 370.693 206.16C369.453 205.86 368.433 205.55 367.633 205.23C366.853 204.91 366.173 204.42 365.593 203.76C365.033 203.1 364.753 202.21 364.753 201.09C364.753 200.17 365.013 199.33 365.533 198.57C366.073 197.81 366.833 197.21 367.813 196.77C368.813 196.33 369.983 196.11 371.323 196.11C373.303 196.11 374.883 196.61 376.063 197.61C377.243 198.59 377.893 199.92 378.013 201.6H373.993C373.933 200.94 373.653 200.42 373.153 200.04C372.673 199.64 372.023 199.44 371.203 199.44C370.443 199.44 369.853 199.58 369.433 199.86C369.033 200.14 368.833 200.53 368.833 201.03C368.833 201.59 369.113 202.02 369.673 202.32C370.233 202.6 371.103 202.89 372.283 203.19C373.483 203.49 374.473 203.8 375.253 204.12C376.033 204.44 376.703 204.94 377.263 205.62C377.843 206.28 378.143 207.16 378.163 208.26C378.163 209.22 377.893 210.08 377.353 210.84C376.833 211.6 376.073 212.2 375.073 212.64C374.093 213.06 372.943 213.27 371.623 213.27ZM387.971 213.27C386.611 213.27 385.391 213.03 384.311 212.55C383.231 212.05 382.371 211.38 381.731 210.54C381.111 209.7 380.771 208.77 380.711 207.75H384.941C385.021 208.39 385.331 208.92 385.871 209.34C386.431 209.76 387.121 209.97 387.941 209.97C388.741 209.97 389.361 209.81 389.801 209.49C390.261 209.17 390.491 208.76 390.491 208.26C390.491 207.72 390.211 207.32 389.651 207.06C389.111 206.78 388.241 206.48 387.041 206.16C385.801 205.86 384.781 205.55 383.981 205.23C383.201 204.91 382.521 204.42 381.941 203.76C381.381 203.1 381.101 202.21 381.101 201.09C381.101 200.17 381.361 199.33 381.881 198.57C382.421 197.81 383.181 197.21 384.161 196.77C385.161 196.33 386.331 196.11 387.671 196.11C389.651 196.11 391.231 196.61 392.411 197.61C393.591 198.59 394.241 199.92 394.361 201.6H390.341C390.281 200.94 390.001 200.42 389.501 200.04C389.021 199.64 388.371 199.44 387.551 199.44C386.791 199.44 386.201 199.58 385.781 199.86C385.381 200.14 385.181 200.53 385.181 201.03C385.181 201.59 385.461 202.02 386.021 202.32C386.581 202.6 387.451 202.89 388.631 203.19C389.831 203.49 390.821 203.8 391.601 204.12C392.381 204.44 393.051 204.94 393.611 205.62C394.191 206.28 394.491 207.16 394.511 208.26C394.511 209.22 394.241 210.08 393.701 210.84C393.181 211.6 392.421 212.2 391.421 212.64C390.441 213.06 389.291 213.27 387.971 213.27ZM405.339 213.27C403.739 213.27 402.299 212.92 401.019 212.22C399.739 211.5 398.729 210.49 397.989 209.19C397.269 207.89 396.909 206.39 396.909 204.69C396.909 202.99 397.279 201.49 398.019 200.19C398.779 198.89 399.809 197.89 401.109 197.19C402.409 196.47 403.859 196.11 405.459 196.11C407.059 196.11 408.509 196.47 409.809 197.19C411.109 197.89 412.129 198.89 412.869 200.19C413.629 201.49 414.009 202.99 414.009 204.69C414.009 206.39 413.619 207.89 412.839 209.19C412.079 210.49 411.039 211.5 409.719 212.22C408.419 212.92 406.959 213.27 405.339 213.27ZM405.339 209.61C406.099 209.61 406.809 209.43 407.469 209.07C408.149 208.69 408.689 208.13 409.089 207.39C409.489 206.65 409.689 205.75 409.689 204.69C409.689 203.11 409.269 201.9 408.429 201.06C407.609 200.2 406.599 199.77 405.399 199.77C404.199 199.77 403.189 200.2 402.369 201.06C401.569 201.9 401.169 203.11 401.169 204.69C401.169 206.27 401.559 207.49 402.339 208.35C403.139 209.19 404.139 209.61 405.339 209.61Z" fill="black"/>
<rect x="129" width="150" height="150" rx="75" fill="#EDEDED"/>
<path d="M190.82 91.145L173.035 73.36L167 79.3949L190.82 103.215L242 52.035L235.965 46L190.82 91.145Z" fill="#1D9E34"/>
</svg>
