<svg width="113" height="25" viewBox="0 0 113 25" fill="none" xmlns="http://www.w3.org/2000/svg">
<path d="M20.8193 7.80593C20.8201 7.67432 20.7949 7.54386 20.7451 7.42202C20.6953 7.30018 20.622 7.18937 20.5293 7.09593L16.2893 2.85593C16.1959 2.76325 16.0851 2.68993 15.9632 2.64016C15.8414 2.5904 15.7109 2.56517 15.5793 2.56593C15.4477 2.56517 15.3173 2.5904 15.1954 2.64016C15.0736 2.68993 14.9628 2.76325 14.8693 2.85593L12.0393 5.68593L1.10935 16.6159C1.01667 16.7093 0.943346 16.8202 0.893581 16.942C0.843817 17.0638 0.818592 17.1943 0.819353 17.3259V21.5659C0.819353 21.8311 0.924709 22.0855 1.11225 22.273C1.29978 22.4605 1.55413 22.5659 1.81935 22.5659H6.05934C6.19927 22.5735 6.33924 22.5516 6.47016 22.5017C6.60109 22.4517 6.72005 22.3748 6.81934 22.2759L17.6893 11.3459L20.5293 8.56592C20.6206 8.46901 20.695 8.35746 20.7493 8.23592C20.759 8.15622 20.759 8.07563 20.7493 7.99592C20.754 7.94938 20.754 7.90247 20.7493 7.85593L20.8193 7.80593ZM5.64934 20.5659H2.81935V17.7359L12.7493 7.80593L15.5793 10.6359L5.64934 20.5659ZM16.9893 9.22592L14.1593 6.39593L15.5793 4.98593L18.3993 7.80593L16.9893 9.22592Z" fill="#FFBB00"/>
<path d="M27.8433 8.91841V12.1824H31.6833V13.6704H27.8433V17.0784H32.1633V18.5664H26.0193V7.43041H32.1633V8.91841H27.8433ZM33.802 14.1184C33.802 13.2331 33.9833 12.4491 34.346 11.7664C34.7193 11.0837 35.2206 10.5557 35.85 10.1824C36.49 9.79841 37.1993 9.60641 37.978 9.60641C38.554 9.60641 39.1193 9.73441 39.674 9.99041C40.2393 10.2357 40.6873 10.5664 41.018 10.9824V6.72641H42.858V18.5664H41.018V17.2384C40.7193 17.6651 40.3033 18.0171 39.77 18.2944C39.2473 18.5717 38.6446 18.7104 37.962 18.7104C37.194 18.7104 36.49 18.5184 35.85 18.1344C35.2206 17.7397 34.7193 17.1957 34.346 16.5024C33.9833 15.7984 33.802 15.0037 33.802 14.1184ZM41.018 14.1504C41.018 13.5424 40.89 13.0144 40.634 12.5664C40.3886 12.1184 40.0633 11.7771 39.658 11.5424C39.2526 11.3077 38.8153 11.1904 38.346 11.1904C37.8766 11.1904 37.4393 11.3077 37.034 11.5424C36.6286 11.7664 36.298 12.1024 36.042 12.5504C35.7966 12.9877 35.674 13.5104 35.674 14.1184C35.674 14.7264 35.7966 15.2597 36.042 15.7184C36.298 16.1771 36.6286 16.5291 37.034 16.7744C37.45 17.0091 37.8873 17.1264 38.346 17.1264C38.8153 17.1264 39.2526 17.0091 39.658 16.7744C40.0633 16.5397 40.3886 16.1984 40.634 15.7504C40.89 15.2917 41.018 14.7584 41.018 14.1504ZM46.1817 8.58241C45.851 8.58241 45.5737 8.47041 45.3497 8.24641C45.1257 8.02241 45.0137 7.74507 45.0137 7.41441C45.0137 7.08374 45.1257 6.80641 45.3497 6.58241C45.5737 6.35841 45.851 6.24641 46.1817 6.24641C46.5017 6.24641 46.7737 6.35841 46.9977 6.58241C47.2217 6.80641 47.3337 7.08374 47.3337 7.41441C47.3337 7.74507 47.2217 8.02241 46.9977 8.24641C46.7737 8.47041 46.5017 8.58241 46.1817 8.58241ZM47.0777 9.75041V18.5664H45.2537V9.75041H47.0777ZM51.6005 11.2384V16.1184C51.6005 16.4491 51.6751 16.6891 51.8245 16.8384C51.9845 16.9771 52.2511 17.0464 52.6245 17.0464H53.7445V18.5664H52.3045C51.4831 18.5664 50.8538 18.3744 50.4165 17.9904C49.9791 17.6064 49.7605 16.9824 49.7605 16.1184V11.2384H48.7205V9.75041H49.7605V7.55841H51.6005V9.75041H53.7445V11.2384H51.6005ZM54.8176 14.1184C54.8176 13.2331 54.9989 12.4491 55.3616 11.7664C55.7349 11.0837 56.2363 10.5557 56.8656 10.1824C57.5056 9.79841 58.2096 9.60641 58.9776 9.60641C59.6709 9.60641 60.2736 9.74507 60.7856 10.0224C61.3083 10.2891 61.7243 10.6251 62.0336 11.0304V9.75041H63.8736V18.5664H62.0336V17.2544C61.7243 17.6704 61.3029 18.0171 60.7696 18.2944C60.2363 18.5717 59.6283 18.7104 58.9456 18.7104C58.1883 18.7104 57.4949 18.5184 56.8656 18.1344C56.2363 17.7397 55.7349 17.1957 55.3616 16.5024C54.9989 15.7984 54.8176 15.0037 54.8176 14.1184ZM62.0336 14.1504C62.0336 13.5424 61.9056 13.0144 61.6496 12.5664C61.4043 12.1184 61.0789 11.7771 60.6736 11.5424C60.2683 11.3077 59.8309 11.1904 59.3616 11.1904C58.8923 11.1904 58.4549 11.3077 58.0496 11.5424C57.6443 11.7664 57.3136 12.1024 57.0576 12.5504C56.8123 12.9877 56.6896 13.5104 56.6896 14.1184C56.6896 14.7264 56.8123 15.2597 57.0576 15.7184C57.3136 16.1771 57.6443 16.5291 58.0496 16.7744C58.4656 17.0091 58.9029 17.1264 59.3616 17.1264C59.8309 17.1264 60.2683 17.0091 60.6736 16.7744C61.0789 16.5397 61.4043 16.1984 61.6496 15.7504C61.9056 15.2917 62.0336 14.7584 62.0336 14.1504ZM68.0933 11.0304C68.36 10.5824 68.712 10.2357 69.1493 9.99041C69.5973 9.73441 70.1253 9.60641 70.7333 9.60641V11.4944H70.2693C69.5547 11.4944 69.0107 11.6757 68.6373 12.0384C68.2747 12.4011 68.0933 13.0304 68.0933 13.9264V18.5664H66.2693V9.75041H68.0933V11.0304ZM78.3902 7.44641V18.5664H76.5662V7.44641H78.3902ZM82.913 11.2384V16.1184C82.913 16.4491 82.9876 16.6891 83.137 16.8384C83.297 16.9771 83.5636 17.0464 83.937 17.0464H85.057V18.5664H83.617C82.7956 18.5664 82.1663 18.3744 81.729 17.9904C81.2916 17.6064 81.073 16.9824 81.073 16.1184V11.2384H80.033V9.75041H81.073V7.55841H82.913V9.75041H85.057V11.2384H82.913ZM94.8181 13.9424C94.8181 14.2731 94.7968 14.5717 94.7541 14.8384H88.0181C88.0714 15.5424 88.3328 16.1077 88.8021 16.5344C89.2714 16.9611 89.8474 17.1744 90.5301 17.1744C91.5114 17.1744 92.2048 16.7637 92.6101 15.9424H94.5781C94.3114 16.7531 93.8261 17.4197 93.1221 17.9424C92.4288 18.4544 91.5648 18.7104 90.5301 18.7104C89.6874 18.7104 88.9301 18.5237 88.2581 18.1504C87.5968 17.7664 87.0741 17.2331 86.6901 16.5504C86.3168 15.8571 86.1301 15.0571 86.1301 14.1504C86.1301 13.2437 86.3114 12.4491 86.6741 11.7664C87.0474 11.0731 87.5648 10.5397 88.2261 10.1664C88.8981 9.79307 89.6661 9.60641 90.5301 9.60641C91.3621 9.60641 92.1034 9.78774 92.7541 10.1504C93.4048 10.5131 93.9114 11.0251 94.2741 11.6864C94.6368 12.3371 94.8181 13.0891 94.8181 13.9424ZM92.9141 13.3664C92.9034 12.6944 92.6634 12.1557 92.1941 11.7504C91.7248 11.3451 91.1434 11.1424 90.4501 11.1424C89.8208 11.1424 89.2821 11.3451 88.8341 11.7504C88.3861 12.1451 88.1194 12.6837 88.0341 13.3664H92.9141ZM107.285 9.60641C107.978 9.60641 108.597 9.75041 109.141 10.0384C109.696 10.3264 110.128 10.7531 110.437 11.3184C110.757 11.8837 110.917 12.5664 110.917 13.3664V18.5664H109.109V13.6384C109.109 12.8491 108.912 12.2464 108.517 11.8304C108.122 11.4037 107.584 11.1904 106.901 11.1904C106.218 11.1904 105.674 11.4037 105.269 11.8304C104.874 12.2464 104.677 12.8491 104.677 13.6384V18.5664H102.869V13.6384C102.869 12.8491 102.672 12.2464 102.277 11.8304C101.882 11.4037 101.344 11.1904 100.661 11.1904C99.9784 11.1904 99.4344 11.4037 99.0291 11.8304C98.6344 12.2464 98.4371 12.8491 98.4371 13.6384V18.5664H96.6131V9.75041H98.4371V10.7584C98.7358 10.3957 99.1144 10.1131 99.5731 9.91041C100.032 9.70774 100.522 9.60641 101.045 9.60641C101.749 9.60641 102.378 9.75574 102.933 10.0544C103.488 10.3531 103.914 10.7851 104.213 11.3504C104.48 10.8171 104.896 10.3957 105.461 10.0864C106.026 9.76641 106.634 9.60641 107.285 9.60641Z" fill="#FFBB00"/>
</svg>
