<svg width="114" height="24" viewBox="0 0 114 24" fill="none" xmlns="http://www.w3.org/2000/svg">
<path d="M20 7.23952C20.0007 7.10791 19.9755 6.97745 19.9258 6.85561C19.876 6.73378 19.8027 6.62296 19.71 6.52952L15.47 2.28953C15.3765 2.19685 15.2657 2.12352 15.1439 2.07376C15.0221 2.02399 14.8916 1.99877 14.76 1.99953C14.6284 1.99877 14.4979 2.02399 14.3761 2.07376C14.2542 2.12352 14.1434 2.19685 14.05 2.28953L11.22 5.11952L0.290016 16.0495C0.197335 16.1429 0.12401 16.2538 0.0742453 16.3756C0.0244808 16.4974 -0.000744178 16.6279 1.67143e-05 16.7595V20.9995C1.67143e-05 21.2647 0.105373 21.5191 0.292909 21.7066C0.480445 21.8941 0.734799 21.9995 1.00001 21.9995H5.24001C5.37993 22.0071 5.5199 21.9852 5.65083 21.9353C5.78175 21.8853 5.90072 21.8084 6.00001 21.7095L16.87 10.7795L19.71 7.99952C19.8013 7.9026 19.8756 7.79105 19.93 7.66952C19.9396 7.58981 19.9396 7.50923 19.93 7.42952C19.9347 7.38297 19.9347 7.33607 19.93 7.28952L20 7.23952ZM4.83001 19.9995H2.00001V17.1695L11.93 7.23952L14.76 10.0695L4.83001 19.9995ZM16.17 8.65952L13.34 5.82952L14.76 4.41952L17.58 7.23952L16.17 8.65952Z" fill="#2E2E2E"/>
<path d="M27.024 8.352V11.616H30.864V13.104H27.024V16.512H31.344V18H25.2V6.864H31.344V8.352H27.024ZM32.9826 13.552C32.9826 12.6667 33.164 11.8827 33.5266 11.2C33.9 10.5173 34.4013 9.98933 35.0306 9.616C35.6706 9.232 36.38 9.04 37.1586 9.04C37.7346 9.04 38.3 9.168 38.8546 9.424C39.42 9.66933 39.868 10 40.1986 10.416V6.16H42.0386V18H40.1986V16.672C39.9 17.0987 39.484 17.4507 38.9506 17.728C38.428 18.0053 37.8253 18.144 37.1426 18.144C36.3746 18.144 35.6706 17.952 35.0306 17.568C34.4013 17.1733 33.9 16.6293 33.5266 15.936C33.164 15.232 32.9826 14.4373 32.9826 13.552ZM40.1986 13.584C40.1986 12.976 40.0706 12.448 39.8146 12C39.5693 11.552 39.244 11.2107 38.8386 10.976C38.4333 10.7413 37.996 10.624 37.5266 10.624C37.0573 10.624 36.62 10.7413 36.2146 10.976C35.8093 11.2 35.4786 11.536 35.2226 11.984C34.9773 12.4213 34.8546 12.944 34.8546 13.552C34.8546 14.16 34.9773 14.6933 35.2226 15.152C35.4786 15.6107 35.8093 15.9627 36.2146 16.208C36.6306 16.4427 37.068 16.56 37.5266 16.56C37.996 16.56 38.4333 16.4427 38.8386 16.208C39.244 15.9733 39.5693 15.632 39.8146 15.184C40.0706 14.7253 40.1986 14.192 40.1986 13.584ZM45.3624 8.016C45.0317 8.016 44.7544 7.904 44.5304 7.68C44.3064 7.456 44.1944 7.17867 44.1944 6.848C44.1944 6.51733 44.3064 6.24 44.5304 6.016C44.7544 5.792 45.0317 5.68 45.3624 5.68C45.6824 5.68 45.9544 5.792 46.1784 6.016C46.4024 6.24 46.5144 6.51733 46.5144 6.848C46.5144 7.17867 46.4024 7.456 46.1784 7.68C45.9544 7.904 45.6824 8.016 45.3624 8.016ZM46.2584 9.184V18H44.4344V9.184H46.2584ZM50.7811 10.672V15.552C50.7811 15.8827 50.8558 16.1227 51.0051 16.272C51.1651 16.4107 51.4318 16.48 51.8051 16.48H52.9251V18H51.4851C50.6638 18 50.0345 17.808 49.5971 17.424C49.1598 17.04 48.9411 16.416 48.9411 15.552V10.672H47.9011V9.184H48.9411V6.992H50.7811V9.184H52.9251V10.672H50.7811ZM53.9983 13.552C53.9983 12.6667 54.1796 11.8827 54.5423 11.2C54.9156 10.5173 55.4169 9.98933 56.0463 9.616C56.6863 9.232 57.3903 9.04 58.1583 9.04C58.8516 9.04 59.4543 9.17867 59.9663 9.456C60.4889 9.72267 60.9049 10.0587 61.2143 10.464V9.184H63.0543V18H61.2143V16.688C60.9049 17.104 60.4836 17.4507 59.9503 17.728C59.4169 18.0053 58.8089 18.144 58.1263 18.144C57.3689 18.144 56.6756 17.952 56.0463 17.568C55.4169 17.1733 54.9156 16.6293 54.5423 15.936C54.1796 15.232 53.9983 14.4373 53.9983 13.552ZM61.2143 13.584C61.2143 12.976 61.0863 12.448 60.8303 12C60.5849 11.552 60.2596 11.2107 59.8543 10.976C59.4489 10.7413 59.0116 10.624 58.5423 10.624C58.0729 10.624 57.6356 10.7413 57.2303 10.976C56.8249 11.2 56.4943 11.536 56.2383 11.984C55.9929 12.4213 55.8703 12.944 55.8703 13.552C55.8703 14.16 55.9929 14.6933 56.2383 15.152C56.4943 15.6107 56.8249 15.9627 57.2303 16.208C57.6463 16.4427 58.0836 16.56 58.5423 16.56C59.0116 16.56 59.4489 16.4427 59.8543 16.208C60.2596 15.9733 60.5849 15.632 60.8303 15.184C61.0863 14.7253 61.2143 14.192 61.2143 13.584ZM67.274 10.464C67.5407 10.016 67.8927 9.66933 68.33 9.424C68.778 9.168 69.306 9.04 69.914 9.04V10.928H69.45C68.7353 10.928 68.1913 11.1093 67.818 11.472C67.4553 11.8347 67.274 12.464 67.274 13.36V18H65.45V9.184H67.274V10.464ZM83.5229 10.192C83.5229 10.7573 83.3895 11.2907 83.1229 11.792C82.8562 12.2933 82.4295 12.704 81.8429 13.024C81.2562 13.3333 80.5042 13.488 79.5869 13.488H77.5709V18H75.7469V6.88H79.5869C80.4402 6.88 81.1602 7.02933 81.7469 7.328C82.3442 7.616 82.7869 8.01067 83.0749 8.512C83.3735 9.01333 83.5229 9.57333 83.5229 10.192ZM79.5869 12C80.2802 12 80.7975 11.8453 81.1389 11.536C81.4802 11.216 81.6509 10.768 81.6509 10.192C81.6509 8.976 80.9629 8.368 79.5869 8.368H77.5709V12H79.5869ZM93.3425 13.376C93.3425 13.7067 93.3212 14.0053 93.2785 14.272H86.5425C86.5958 14.976 86.8572 15.5413 87.3265 15.968C87.7958 16.3947 88.3718 16.608 89.0545 16.608C90.0358 16.608 90.7292 16.1973 91.1345 15.376H93.1025C92.8358 16.1867 92.3505 16.8533 91.6465 17.376C90.9532 17.888 90.0892 18.144 89.0545 18.144C88.2118 18.144 87.4545 17.9573 86.7825 17.584C86.1212 17.2 85.5985 16.6667 85.2145 15.984C84.8412 15.2907 84.6545 14.4907 84.6545 13.584C84.6545 12.6773 84.8358 11.8827 85.1985 11.2C85.5718 10.5067 86.0892 9.97333 86.7505 9.6C87.4225 9.22667 88.1905 9.04 89.0545 9.04C89.8865 9.04 90.6278 9.22133 91.2785 9.584C91.9292 9.94667 92.4358 10.4587 92.7985 11.12C93.1612 11.7707 93.3425 12.5227 93.3425 13.376ZM91.4385 12.8C91.4278 12.128 91.1878 11.5893 90.7185 11.184C90.2492 10.7787 89.6678 10.576 88.9745 10.576C88.3452 10.576 87.8065 10.7787 87.3585 11.184C86.9105 11.5787 86.6438 12.1173 86.5585 12.8H91.4385ZM96.9615 10.464C97.2282 10.016 97.5802 9.66933 98.0175 9.424C98.4655 9.168 98.9935 9.04 99.6015 9.04V10.928H99.1375C98.4228 10.928 97.8788 11.1093 97.5055 11.472C97.1428 11.8347 96.9615 12.464 96.9615 13.36V18H95.1375V9.184H96.9615V10.464ZM104.974 10.672H103.342V18H101.502V10.672H100.462V9.184H101.502V8.56C101.502 7.54667 101.769 6.81067 102.302 6.352C102.846 5.88267 103.694 5.648 104.846 5.648V7.168C104.291 7.168 103.902 7.27467 103.678 7.488C103.454 7.69067 103.342 8.048 103.342 8.56V9.184H104.974V10.672ZM107.519 8.016C107.188 8.016 106.911 7.904 106.687 7.68C106.463 7.456 106.351 7.17867 106.351 6.848C106.351 6.51733 106.463 6.24 106.687 6.016C106.911 5.792 107.188 5.68 107.519 5.68C107.839 5.68 108.111 5.792 108.335 6.016C108.559 6.24 108.671 6.51733 108.671 6.848C108.671 7.17867 108.559 7.456 108.335 7.68C108.111 7.904 107.839 8.016 107.519 8.016ZM108.415 9.184V18H106.591V9.184H108.415ZM112.633 6.16V18H110.809V6.16H112.633Z" fill="#2E2E2E"/>
</svg>
