<svg width="50" height="84" viewBox="0 0 50 84" fill="none" xmlns="http://www.w3.org/2000/svg">
<path d="M8.0174 1.23459e-05H41.9981C44.2045 1.23459e-05 46.1933 0.940872 47.6538 2.46977C48.394 3.23663 48.9833 4.15721 49.3865 5.17633C49.7896 6.19545 49.9983 7.2921 50 8.40054V74.9328C50.0004 76.044 49.7927 77.1439 49.3895 78.166C48.9863 79.1882 48.3959 80.1115 47.6538 80.8803C46.1351 82.4618 44.1066 83.3416 41.9981 83.3333H8.0174C5.90898 83.3416 3.88042 82.4618 2.36171 80.8803C1.61873 80.1149 1.02652 79.195 0.620666 78.1758C0.214813 77.1566 0.00369627 76.0592 0 74.9496V8.40054C0.00369627 7.29089 0.214813 6.19351 0.620666 5.17433C1.02652 4.15514 1.61873 3.2352 2.36171 2.46977C3.87795 0.882155 5.9068 -0.00381453 8.0174 1.23459e-05ZM41.9981 3.47783H8.0174C6.78257 3.47647 5.59568 3.99465 4.70789 4.92272C4.26952 5.37012 3.91959 5.90898 3.67924 6.50674C3.43889 7.1045 3.31311 7.74874 3.30951 8.40054V74.9328C3.30951 76.2936 3.85333 77.5201 4.70789 78.4274C5.54693 79.3178 6.72778 79.8723 8.0174 79.8723H41.9981C43.2352 79.8691 44.4223 79.3448 45.3076 78.4106C45.7432 77.9617 46.0903 77.4222 46.3279 76.8245C46.5656 76.2269 46.6889 75.5833 46.6905 74.9328V8.40054C46.6889 7.74995 46.5656 7.10644 46.3279 6.50875C46.0903 5.91106 45.7432 5.37156 45.3076 4.92272C44.4199 3.99465 43.233 3.47647 41.9981 3.47783Z" fill="#FFBB00"/>
<path d="M15.2446 0H36.1109V4.86789C36.1065 5.51068 35.9818 6.14588 35.7445 6.73538C35.5072 7.32489 35.1621 7.85654 34.7299 8.29846C33.8532 9.21107 32.6832 9.72137 31.4656 9.72221H18.534C17.312 9.72488 16.137 9.21433 15.2572 8.29846C14.8272 7.85539 14.4844 7.32321 14.2493 6.73376C14.0141 6.14432 13.8915 5.50971 13.8887 4.86789V0H15.2446ZM33.4241 2.80683H16.5754V4.86789C16.5754 5.42383 16.8014 5.95265 17.1655 6.31876C17.5355 6.70731 18.0305 6.926 18.5465 6.92894H31.4656C31.9816 6.926 32.4766 6.70731 32.8466 6.31876C33.0282 6.1312 33.1728 5.90606 33.2721 5.65679C33.3713 5.40752 33.423 5.13922 33.4241 4.86789V2.80683Z" fill="#FFBB00"/>
</svg>
