<svg width="30" height="30" viewBox="0 0 30 30" fill="none" xmlns="http://www.w3.org/2000/svg">
<path d="M29.9769 12.0129C30.1268 11.2268 29.5272 10.2835 28.7778 10.2835L20.2344 9.02575L16.3374 0.850472C16.1875 0.536038 16.0376 0.378821 15.7379 0.221604C14.9884 -0.250047 14.0891 0.0643867 13.6395 0.850472L9.89237 9.02575L1.34896 10.2835C0.899307 10.2835 0.599538 10.4407 0.449653 10.7551C-0.149884 11.384 -0.149884 12.3273 0.449653 12.9562L6.59491 19.2449L5.09607 28.2062C5.09607 28.5207 5.09607 28.8351 5.24595 29.1495C5.69561 29.9356 6.59491 30.25 7.34434 29.7784L14.9884 25.5335L22.6325 29.7784C22.7824 29.9356 23.0822 29.9356 23.382 29.9356C23.5319 29.9356 23.5318 29.9356 23.6817 29.9356C24.4312 29.7784 25.0307 28.9923 24.8808 28.049L23.382 19.0876L29.5272 12.799C29.827 12.6417 29.9769 12.3273 29.9769 12.0129Z" fill="#FFBB00"/>
</svg>
