<svg width="35" height="35" viewBox="0 0 35 35" fill="none" xmlns="http://www.w3.org/2000/svg">
<path d="M34.9811 14.0175C35.1225 13.0123 34.4559 12.078 33.4923 11.9304L23.5323 10.4117L19.0816 0.951295C18.9213 0.662725 18.6913 0.423073 18.4144 0.256236C17.5402 -0.270752 16.4218 0.0411546 15.9165 0.95309L11.4674 10.4117L1.50744 11.9305C1.12664 11.9888 0.774678 12.1755 0.505004 12.4619C-0.177304 13.1868 -0.16687 14.3514 0.528131 15.0631L7.74125 22.4393L6.03909 32.8512C6.02295 32.9508 6.01467 33.0517 6.01445 33.1529C6.01176 34.1702 6.80024 34.9972 7.77567 35C8.06321 34.9996 8.34633 34.9256 8.60008 34.7846L17.4999 29.8766L26.398 34.7828C26.7419 34.9732 27.1364 35.0395 27.5202 34.9713C28.4793 34.8006 29.1242 33.8516 28.9607 32.8512L27.2585 22.4393L34.4733 15.0612C34.747 14.7802 34.9252 14.4138 34.9811 14.0175ZM25.6957 21.4627C25.4894 21.6738 25.395 21.9768 25.4427 22.2741L27.2224 33.1581L17.9112 28.0238C17.6534 27.8838 17.3464 27.8838 17.0885 28.0238L7.7774 33.1599L9.5569 22.2742C9.60477 21.9769 9.51033 21.6739 9.3039 21.4628L1.76205 13.7508L12.1816 12.1621C12.4693 12.1172 12.7176 11.9281 12.846 11.6559L17.4999 1.76293L22.1536 11.6558C22.2821 11.928 22.5304 12.1171 22.8181 12.162L33.2393 13.7489L25.6957 21.4627Z" fill="#FFBB00"/>
<path d="M21.7437 17.8938H17.8062V13.9563C17.8062 13.7823 17.737 13.6153 17.6139 13.4923C17.4909 13.3692 17.324 13.3 17.1499 13.3C16.9759 13.3 16.8089 13.3692 16.6859 13.4923C16.5628 13.6153 16.4937 13.7823 16.4937 13.9563V17.8938H12.5562C12.3821 17.8938 12.2152 17.9629 12.0921 18.086C11.969 18.2091 11.8999 18.376 11.8999 18.55C11.8999 18.7241 11.969 18.891 12.0921 19.0141C12.2152 19.1372 12.3821 19.2063 12.5562 19.2063H16.4937V23.1438C16.4937 23.3178 16.5628 23.4848 16.6859 23.6078C16.8089 23.7309 16.9759 23.8 17.1499 23.8C17.324 23.8 17.4909 23.7309 17.6139 23.6078C17.737 23.4848 17.8062 23.3178 17.8062 23.1438V19.2063H21.7437C21.9177 19.2063 22.0846 19.1372 22.2077 19.0141C22.3308 18.891 22.3999 18.7241 22.3999 18.55C22.3999 18.376 22.3308 18.2091 22.2077 18.086C22.0846 17.9629 21.9177 17.8938 21.7437 17.8938Z" fill="#FFBB00"/>
</svg>
