<svg width="114" height="80" viewBox="0 0 114 80" fill="none" xmlns="http://www.w3.org/2000/svg">
<path d="M56.992 7.67038L56.992 7.67052L57.0037 7.67038C67.0034 7.55271 72.6293 5.74452 76.9289 3.95935C77.7122 3.63414 78.4458 3.31285 79.1491 3.00479C82.3149 1.6183 84.8683 0.5 88.5807 0.5C91.353 0.5 95.5266 2.43911 99.661 7.95066C103.786 13.4499 107.831 22.4592 110.335 36.4475C111.771 44.4592 113.261 54.4175 113.47 62.7217C113.575 66.8772 113.358 70.5866 112.667 73.4205C111.969 76.2816 110.829 78.0971 109.216 78.7219C106.989 79.5842 105.171 79.6781 103.54 79.255C101.896 78.8286 100.391 77.8647 98.8152 76.52C97.6236 75.5034 96.4194 74.2949 95.0951 72.966C94.6605 72.5299 94.213 72.0808 93.7488 71.6213C91.8799 69.7714 89.7649 67.7785 87.2036 65.8712L87.2035 65.8711C82.0475 62.0348 78.1883 59.6308 73.7531 58.1978C69.3213 56.766 64.3529 56.3162 56.9978 56.3162C49.6427 56.3162 44.6744 56.766 40.2426 58.1978C35.8074 59.6308 31.9482 62.0348 26.7922 65.8711L26.7919 65.8713C24.2307 67.78 22.1157 69.7736 20.2469 71.6237C19.7843 72.0817 19.3383 72.5292 18.9052 72.9638C17.5791 74.2947 16.3734 75.5046 15.1805 76.5221C13.6044 77.8664 12.0996 78.8298 10.4559 79.2557C8.82455 79.6785 7.00646 79.5843 4.77967 78.7219C3.16683 78.0971 2.02625 76.2813 1.3288 73.4197C0.637976 70.5853 0.420438 66.8754 0.52476 62.7195C0.733234 54.4146 2.22227 44.4564 3.65486 36.4475C6.15946 22.4592 10.2052 13.45 14.3318 7.95073C18.4676 2.43917 22.6426 0.5 25.4149 0.5C29.1274 0.5 31.6808 1.6183 34.8465 3.00479C35.5499 3.31285 36.2835 3.63414 37.0668 3.95935C41.3664 5.74452 46.9923 7.55271 56.992 7.67038ZM25.784 37.0162C28.0157 39.2479 31.0424 40.5016 34.1984 40.5016C37.3544 40.5016 40.3812 39.2479 42.6128 37.0162C44.8444 34.7846 46.0981 31.7579 46.0981 28.6019C46.0981 25.4459 44.8444 22.4191 42.6128 20.1875C40.3812 17.9559 37.3544 16.7022 34.1984 16.7022C31.0424 16.7022 28.0157 17.9559 25.784 20.1875C23.5524 22.4191 22.2987 25.4459 22.2987 28.6019C22.2987 31.7579 23.5524 34.7846 25.784 37.0162ZM69.7134 38.6857C70.8761 39.8484 72.4531 40.5016 74.0974 40.5016C75.7417 40.5016 77.3187 39.8484 78.4814 38.6857C79.6441 37.523 80.2973 35.946 80.2973 34.3017C80.2973 32.6574 79.6441 31.0805 78.4814 29.9178C77.3187 28.7551 75.7417 28.1019 74.0974 28.1019C72.4531 28.1019 70.8761 28.7551 69.7134 29.9178C68.5508 31.0805 67.8976 32.6574 67.8976 34.3017C67.8976 35.946 68.5508 37.523 69.7134 38.6857ZM81.1132 27.286C82.2759 28.4487 83.8528 29.1019 85.4971 29.1019C87.1414 29.1019 88.7184 28.4487 89.8811 27.286C91.0438 26.1233 91.697 24.5463 91.697 22.902C91.697 21.2577 91.0438 19.6808 89.8811 18.5181C88.7184 17.3554 87.1414 16.7022 85.4971 16.7022C83.8528 16.7022 82.2759 17.3554 81.1132 18.5181C79.9505 19.6808 79.2973 21.2577 79.2973 22.902C79.2973 24.5463 79.9505 26.1233 81.1132 27.286Z" fill="#FFBB00" stroke="#FFBB00"/>
</svg>
