<svg width="20" height="20" viewBox="0 0 20 20" fill="none" xmlns="http://www.w3.org/2000/svg">
<path d="M20 5.23952C20.0007 5.10791 19.9755 4.97745 19.9258 4.85561C19.876 4.73378 19.8027 4.62296 19.71 4.52952L15.47 0.289528C15.3765 0.196847 15.2657 0.123522 15.1439 0.0737571C15.0221 0.0239926 14.8916 -0.00123246 14.76 -0.000471567C14.6284 -0.00123246 14.4979 0.0239926 14.3761 0.0737571C14.2542 0.123522 14.1434 0.196847 14.05 0.289528L11.22 3.11952L0.290016 14.0495C0.197335 14.1429 0.12401 14.2538 0.0742453 14.3756C0.0244808 14.4974 -0.000744178 14.6279 1.67143e-05 14.7595V18.9995C1.67143e-05 19.2647 0.105373 19.5191 0.292909 19.7066C0.480445 19.8941 0.734799 19.9995 1.00001 19.9995H5.24001C5.37993 20.0071 5.5199 19.9852 5.65083 19.9353C5.78175 19.8853 5.90072 19.8084 6.00001 19.7095L16.87 8.77951L19.71 5.99952C19.8013 5.9026 19.8756 5.79105 19.93 5.66952C19.9396 5.58981 19.9396 5.50923 19.93 5.42952C19.9347 5.38297 19.9347 5.33607 19.93 5.28952L20 5.23952ZM4.83001 17.9995H2.00001V15.1695L11.93 5.23952L14.76 8.06951L4.83001 17.9995ZM16.17 6.65952L13.34 3.82952L14.76 2.41952L17.58 5.23952L16.17 6.65952Z" fill="#2E2E2E"/>
</svg>
