<svg width="95" height="80" viewBox="0 0 95 80" fill="none" xmlns="http://www.w3.org/2000/svg">
<path d="M43.8707 80C43.3162 80 42.7581 79.8666 42.2457 79.6034C36.517 76.6153 30.1514 75.0548 23.6902 75.0548C17.229 75.0548 10.8633 76.6153 5.13463 79.6034C4.59928 79.8808 4.0016 80.0159 3.39898 79.9957C2.79636 79.9756 2.20906 79.8008 1.69346 79.4882C1.17787 79.1756 0.751311 78.7357 0.454752 78.2107C0.158193 77.6857 0.00159554 77.0933 4.37743e-09 76.4903V9.80686C-2.8267e-05 9.24075 0.136886 8.68303 0.399062 8.18129C0.661238 7.67955 1.04089 7.24868 1.50564 6.92543C14.7757 -2.30848 32.6047 -2.30848 45.8782 6.92543C46.8188 7.58174 47.3804 8.6592 47.3804 9.80686V76.4903C47.3804 77.4212 47.0106 78.3139 46.3524 78.972C45.6942 79.6302 44.8015 80 43.8707 80ZM23.6902 68.0356C29.3407 68.0356 34.9948 69.0499 40.3611 71.0785V11.7021C35.3403 8.63789 29.5721 7.01676 23.6902 7.01676C17.8082 7.01676 12.0401 8.63789 7.01931 11.7021V71.0785C12.3469 69.0658 17.9951 68.0349 23.6902 68.0356Z" fill="#FFBB00"/>
<path d="M91.2511 80C90.6966 80 90.1385 79.8666 89.6261 79.6034C83.8974 76.6153 77.5318 75.0548 71.0706 75.0548C64.6094 75.0548 58.2437 76.6153 52.515 79.6034C51.9797 79.8808 51.382 80.0159 50.7794 79.9957C50.1767 79.9756 49.5894 79.8008 49.0738 79.4882C48.5582 79.1756 48.1317 78.7357 47.8351 78.2107C47.5386 77.6857 47.382 77.0933 47.3804 76.4903V9.80686C47.3803 9.24075 47.5173 8.68303 47.7794 8.18129C48.0416 7.67955 48.4213 7.24868 48.886 6.92543C62.156 -2.30848 79.9851 -2.30848 93.2586 6.92543C94.1992 7.58174 94.7607 8.6592 94.7607 9.80686V76.4903C94.7607 77.4212 94.391 78.3139 93.7328 78.972C93.0746 79.6302 92.1819 80 91.2511 80ZM71.0706 68.0356C76.7211 68.0356 82.3752 69.0499 87.7414 71.0785V11.7021C82.7207 8.63789 76.9525 7.01676 71.0706 7.01676C65.1886 7.01676 59.4204 8.63789 54.3997 11.7021V71.0785C59.7273 69.0658 65.3754 68.0349 71.0706 68.0356Z" fill="#FFBB00"/>
</svg>
