<svg width="30" height="36" viewBox="0 0 30 36" fill="none" xmlns="http://www.w3.org/2000/svg">
<path d="M10.5 4.5H7.5C7.5 1.95 9.45 0 12 0V3C11.1 3 10.5 3.6 10.5 4.5ZM22.5 4.5H19.5C19.5 3.6 18.9 3 18 3V0C20.55 0 22.5 1.95 22.5 4.5ZM22.5 9H7.5V4.5H10.5V6H19.5V4.5H22.5V9ZM12 0H18V3H12V0Z" fill="#404040"/>
<path d="M28.5 9H1.5C0.6 9 0 8.4 0 7.5C0 6.6 0.6 6 1.5 6H28.5C29.4 6 30 6.6 30 7.5C30 8.4 29.4 9 28.5 9ZM25.5 36H4.5C3.6 36 3 35.4 3 34.5V13.5C3 12.6 3.6 12 4.5 12H25.5C26.4 12 27 12.6 27 13.5V34.5C27 35.4 26.4 36 25.5 36ZM6 33H24V15H6V33Z" fill="#404040"/>
<path d="M12 30C11.1 30 10.5 29.4 10.5 28.5V19.5C10.5 18.6 11.1 18 12 18C12.9 18 13.5 18.6 13.5 19.5V28.5C13.5 29.4 12.9 30 12 30ZM18 30C17.1 30 16.5 29.4 16.5 28.5V19.5C16.5 18.6 17.1 18 18 18C18.9 18 19.5 18.6 19.5 19.5V28.5C19.5 29.4 18.9 30 18 30Z" fill="#404040"/>
</svg>
