<svg width="50" height="63" viewBox="0 0 50 63" fill="none" xmlns="http://www.w3.org/2000/svg">
<path d="M25 0C18.3696 0 12.0107 2.63392 7.32233 7.32233C2.63392 12.0107 0 18.3696 0 25C0 41.875 22.0313 60.9375 22.9688 61.75C23.5348 62.2342 24.2551 62.5002 25 62.5002C25.7449 62.5002 26.4652 62.2342 27.0312 61.75C28.125 60.9375 50 41.875 50 25C50 18.3696 47.3661 12.0107 42.6777 7.32233C37.9893 2.63392 31.6304 0 25 0ZM25 55.1562C18.3438 48.9062 6.25 35.4375 6.25 25C6.25 20.0272 8.22544 15.2581 11.7417 11.7417C15.2581 8.22544 20.0272 6.25 25 6.25C29.9728 6.25 34.7419 8.22544 38.2583 11.7417C41.7746 15.2581 43.75 20.0272 43.75 25C43.75 35.4375 31.6562 48.9375 25 55.1562ZM25 12.5C22.5277 12.5 20.111 13.2331 18.0554 14.6066C15.9998 15.9801 14.3976 17.9324 13.4515 20.2165C12.5054 22.5005 12.2579 25.0139 12.7402 27.4386C13.2225 29.8634 14.413 32.0907 16.1612 33.8388C17.9093 35.587 20.1366 36.7775 22.5614 37.2598C24.9861 37.7421 27.4995 37.4946 29.7835 36.5485C32.0676 35.6024 34.0199 34.0002 35.3934 31.9446C36.7669 29.889 37.5 27.4723 37.5 25C37.5 21.6848 36.183 18.5054 33.8388 16.1612C31.4946 13.817 28.3152 12.5 25 12.5ZM25 31.25C23.7639 31.25 22.5555 30.8834 21.5277 30.1967C20.4999 29.5099 19.6988 28.5338 19.2258 27.3918C18.7527 26.2497 18.6289 24.9931 18.8701 23.7807C19.1112 22.5683 19.7065 21.4547 20.5806 20.5806C21.4547 19.7065 22.5683 19.1112 23.7807 18.8701C24.9931 18.6289 26.2497 18.7527 27.3918 19.2258C28.5338 19.6988 29.5099 20.4999 30.1967 21.5277C30.8834 22.5555 31.25 23.7639 31.25 25C31.25 26.6576 30.5915 28.2473 29.4194 29.4194C28.2473 30.5915 26.6576 31.25 25 31.25Z" fill="#FFBB00"/>
</svg>
