<svg width="15" height="15" viewBox="0 0 15 15" fill="none" xmlns="http://www.w3.org/2000/svg">
<path d="M14.0625 6.5625H8.4375V0.9375C8.4375 0.68886 8.33873 0.450403 8.16291 0.274588C7.9871 0.0987722 7.74864 0 7.5 0C7.25136 0 7.0129 0.0987722 6.83709 0.274588C6.66127 0.450403 6.5625 0.68886 6.5625 0.9375V6.5625H0.9375C0.68886 6.5625 0.450403 6.66127 0.274588 6.83709C0.0987722 7.0129 0 7.25136 0 7.5C0 7.74864 0.0987722 7.9871 0.274588 8.16291C0.450403 8.33873 0.68886 8.4375 0.9375 8.4375H6.5625V14.0625C6.5625 14.3111 6.66127 14.5496 6.83709 14.7254C7.0129 14.9012 7.25136 15 7.5 15C7.74864 15 7.9871 14.9012 8.16291 14.7254C8.33873 14.5496 8.4375 14.3111 8.4375 14.0625V8.4375H14.0625C14.3111 8.4375 14.5496 8.33873 14.7254 8.16291C14.9012 7.9871 15 7.74864 15 7.5C15 7.25136 14.9012 7.0129 14.7254 6.83709C14.5496 6.66127 14.3111 6.5625 14.0625 6.5625Z" fill="#FFBB00"/>
</svg>
