<svg width="30" height="30" viewBox="0 0 30 30" fill="none" xmlns="http://www.w3.org/2000/svg">
<path d="M29.9895 8.73261C29.9967 8.63776 29.9967 8.54249 29.9895 8.44764L26.9905 0.948564C26.8734 0.652135 26.6649 0.400736 26.3953 0.230836C26.1257 0.0609354 25.8089 -0.0186306 25.491 0.00367964H4.49842C4.19811 0.00338886 3.90463 0.0933008 3.65599 0.261769C3.40736 0.430238 3.21503 0.6695 3.10391 0.948564L0.104963 8.44764C0.0977351 8.54249 0.0977351 8.63776 0.104963 8.73261C0.0551368 8.8161 0.0196574 8.90735 0 9.00258C0.01669 10.0393 0.301733 11.054 0.827326 11.9477C1.35292 12.8414 2.10112 13.5837 2.99895 14.102V28.5002C2.99895 28.898 3.15693 29.2794 3.43813 29.5607C3.71934 29.842 4.10073 30 4.49842 30H25.491C25.8887 30 26.2701 29.842 26.5513 29.5607C26.8325 29.2794 26.9905 28.898 26.9905 28.5002V14.1619C27.897 13.6385 28.6508 12.8868 29.1769 11.9817C29.703 11.0766 29.9831 10.0495 29.9895 9.00258C30.0035 8.91314 30.0035 8.82205 29.9895 8.73261ZM16.4942 27.0004H13.4953V21.0011H16.4942V27.0004ZM23.9916 27.0004H19.4932V19.5013C19.4932 19.1035 19.3352 18.722 19.054 18.4408C18.7728 18.1595 18.3914 18.0015 17.9937 18.0015H11.9958C11.5981 18.0015 11.2167 18.1595 10.9355 18.4408C10.6543 18.722 10.4963 19.1035 10.4963 19.5013V27.0004H5.99789V15.0018C6.8518 14.997 7.69483 14.8099 8.4706 14.4529C9.24638 14.096 9.93701 13.5775 10.4963 12.9321C11.0592 13.5705 11.7514 14.0817 12.527 14.4319C13.3026 14.7821 14.1438 14.9632 14.9947 14.9632C15.8457 14.9632 16.6869 14.7821 17.4625 14.4319C18.2381 14.0817 18.9303 13.5705 19.4932 12.9321C20.0525 13.5775 20.7431 14.096 21.5189 14.4529C22.2946 14.8099 23.1377 14.997 23.9916 15.0018V27.0004ZM23.9916 12.0022C23.1962 12.0022 22.4334 11.6862 21.871 11.1236C21.3086 10.5611 20.9926 9.79813 20.9926 9.00258C20.9926 8.6048 20.8346 8.22332 20.5534 7.94205C20.2722 7.66078 19.8908 7.50276 19.4932 7.50276C19.0955 7.50276 18.7141 7.66078 18.4329 7.94205C18.1517 8.22332 17.9937 8.6048 17.9937 9.00258C17.9937 9.79813 17.6777 10.5611 17.1153 11.1236C16.5529 11.6862 15.7901 12.0022 14.9947 12.0022C14.1994 12.0022 13.4366 11.6862 12.8742 11.1236C12.3117 10.5611 11.9958 9.79813 11.9958 9.00258C11.9958 8.6048 11.8378 8.22332 11.5566 7.94205C11.2754 7.66078 10.894 7.50276 10.4963 7.50276C10.0986 7.50276 9.71723 7.66078 9.43603 7.94205C9.15482 8.22332 8.99684 8.6048 8.99684 9.00258C9.01161 9.39649 8.94866 9.78946 8.8116 10.159C8.67453 10.5286 8.46603 10.8676 8.19799 11.1566C7.92996 11.4456 7.60764 11.6789 7.24944 11.8433C6.89124 12.0077 6.50418 12.0999 6.11035 12.1147C5.31498 12.1445 4.54034 11.8571 3.95684 11.3157C3.66792 11.0476 3.43462 10.7252 3.27026 10.3669C3.10591 10.0086 3.01372 9.62146 2.99895 9.22755L5.51806 3.00331H24.4714L26.9905 9.22755C26.9337 9.98348 26.5928 10.6899 26.0364 11.2046C25.4801 11.7194 24.7495 12.0043 23.9916 12.0022Z" fill="black"/>
</svg>
