<svg width="30" height="30" viewBox="0 0 30 30" fill="none" xmlns="http://www.w3.org/2000/svg">
<path fill-rule="evenodd" clip-rule="evenodd" d="M24.8443 26.9995H5.15715C4.09817 26.9995 3.31518 25.954 3.71567 24.9925C5.56964 20.5466 9.92556 17.9997 15 17.9997C20.0759 17.9997 24.4318 20.5466 26.2858 24.9925C26.6863 25.954 25.9033 26.9995 24.8443 26.9995ZM8.87558 8.99982C8.87558 5.69088 11.6235 2.99992 15 2.99992C18.3779 2.99992 21.1244 5.69088 21.1244 8.99982C21.1244 12.3088 18.3779 14.9997 15 14.9997C11.6235 14.9997 8.87558 12.3088 8.87558 8.99982ZM29.9337 26.4535C28.8207 21.4151 25.3378 17.6966 20.7554 16.0092C23.1838 14.0937 24.5998 10.9962 24.0793 7.60476C23.4763 3.67033 20.1344 0.521956 16.1025 0.0629642C10.5346 -0.571525 5.81264 3.67341 5.81264 8.99982C5.81264 11.8348 7.15361 14.3607 9.24608 16.0092C4.66066 17.6966 1.18071 21.4151 0.0662341 26.4535C-0.338759 28.285 1.16872 29.9995 3.08118 29.9995H26.9188C28.8327 29.9995 30.3387 28.285 29.9337 26.4535Z" fill="black"/>
</svg>
