<svg width="44" height="44" viewBox="0 0 44 44" fill="none" xmlns="http://www.w3.org/2000/svg">
<path d="M36.4031 18.5511C36.4031 7.36773 30.3875 3.56355 24.7615 2.71563C24.7615 2.65834 24.7729 2.60105 24.7729 2.5323C24.7729 1.12292 23.524 0 22 0C20.476 0 19.2729 1.12292 19.2729 2.5323C19.2729 2.60105 19.2729 2.65834 19.2844 2.71563C13.6469 3.57501 7.59688 7.39065 7.59688 18.574C7.59688 31.6136 4.35417 33.0116 0 36.6782H44C39.6688 33.0001 36.4031 31.5907 36.4031 18.5511Z" fill="black"/>
<path d="M22.0001 43.6058C25.071 43.6058 27.5918 41.3256 27.9241 38.6787H16.0762C16.397 41.3256 18.9293 43.6058 22.0001 43.6058Z" fill="black"/>
</svg>
