<svg width="101" height="82" viewBox="0 0 101 82" fill="none" xmlns="http://www.w3.org/2000/svg">
<path d="M73.3596 81H27.4329C24.8994 81 22.8382 78.6854 22.8382 75.8404V33.1916L15.4615 44.2312C14.5049 45.6651 13.0612 46.4879 11.5012 46.4879C10.2594 46.4881 9.06335 45.9541 8.13321 44.985L2.76299 39.4286C0.708034 37.2977 0.405526 33.5123 2.0877 30.9895C6.11622 24.9619 8.90381 20.1717 11.1437 16.3225C18.6212 3.47297 19.9686 1.15772 39.426 1C39.7469 1.00182 40.0391 1.14196 40.2322 1.39096C40.4252 1.63975 40.491 1.96467 40.4101 2.269C40.179 3.13896 40.0619 4.03376 40.0619 4.92877C40.0619 10.6334 44.7076 15.2742 50.4181 15.2742H50.8553C56.5633 15.2742 61.207 10.6334 61.207 4.92877C61.207 4.02185 61.0915 3.12705 60.8635 2.2692C60.7827 1.96487 60.8483 1.64036 61.0412 1.39116C61.2324 1.14439 61.5273 1 61.8393 1C61.8419 1 61.8443 1 61.8471 1C81.187 1.14984 82.3415 3.12058 89.854 15.9434C92.0632 19.7145 94.8128 24.4076 98.7737 30.334C100.418 32.8007 100.122 36.5011 98.1148 38.5837L92.8859 44.0038C91.9687 44.947 90.7974 45.465 89.585 45.465C88.0569 45.465 86.6423 44.6613 85.7037 43.2596L77.9489 31.6527V75.8404C77.9489 78.6854 75.8901 81 73.3596 81ZM23.8479 28.8533C23.9454 28.8533 24.044 28.8673 24.1409 28.8968C24.5664 29.026 24.8574 29.4184 24.8574 29.863V75.8404C24.8574 77.5719 26.0127 78.9806 27.4327 78.9806H73.3594C74.7766 78.9806 75.9295 77.5719 75.9295 75.8404V28.3236C75.9295 27.879 76.2205 27.4864 76.6462 27.3574C77.0711 27.2283 77.5317 27.3927 77.7787 27.7629L87.3822 42.1368C87.9389 42.9682 88.7421 43.4454 89.585 43.4454C90.2566 43.4454 90.8966 43.1526 91.4352 42.5987L96.661 37.1818C98.0229 35.769 98.2212 33.1464 97.0939 31.4552C93.1006 25.4801 90.3342 20.7583 88.1116 16.9645C80.9613 4.75954 80.064 3.22761 63.0824 3.03112C63.1781 3.65512 63.2264 4.28942 63.2264 4.92856C63.2264 11.7467 57.6768 17.2934 50.8553 17.2934H50.4181C43.5941 17.2934 38.0425 11.7465 38.0425 4.92856C38.0425 4.29406 38.0918 3.65997 38.1893 3.03213C21.0875 3.24882 20.0263 5.07376 12.8893 17.338C10.6353 21.2115 7.83009 26.032 3.76744 32.1106C2.60285 33.8568 2.80822 36.5661 4.21595 38.0259L9.58799 43.5839C10.1439 44.1633 10.8047 44.4684 11.5012 44.4682C12.3748 44.4682 13.2062 43.9731 13.7821 43.1096L23.0084 29.3018C23.199 29.0165 23.5169 28.8533 23.8479 28.8533Z" fill="#FFBB00" stroke="#FFBB00" stroke-width="1.5"/>
</svg>
